<?xml version="1.0" standalone="no"?>
<!DOCTYPE svg PUBLIC "-//W3C//DTD SVG 20010904//EN"
 "http://www.w3.org/TR/2001/REC-SVG-20010904/DTD/svg10.dtd">
<svg version="1.0" xmlns="http://www.w3.org/2000/svg"
 width="1024.000000pt" height="576.000000pt" viewBox="0 0 1024.000000 576.000000"
 preserveAspectRatio="xMidYMid meet">
<metadata>
Created by potrace 1.16, written by Peter Selinger 2001-2019
</metadata>
<g transform="translate(0.000000,576.000000) scale(0.100000,-0.100000)"
fill="#000000" stroke="none">
<path d="M5380 4296 c0 -147 -26 -436 -40 -450 -5 -5 -33 -2 -68 8 -80 22
-201 21 -290 -4 -40 -11 -77 -18 -81 -15 -15 8 -36 257 -36 423 0 116 -3 162
-12 162 -6 0 -16 -31 -23 -72 -6 -40 -16 -89 -20 -108 -51 -202 -97 -565 -110
-868 -14 -325 -30 -564 -40 -583 -9 -15 -147 -59 -187 -59 -10 0 -36 -9 -57
-20 -35 -17 -44 -18 -95 -7 -31 7 -75 11 -98 9 -44 -3 -57 -18 -25 -29 53 -18
132 -58 191 -98 119 -81 118 -86 -9 -25 -68 32 -176 76 -240 96 -219 69 -320
115 -469 214 -266 179 -454 450 -463 668 -1 24 -7 46 -13 48 -38 15 -512 -66
-805 -137 -305 -74 -515 -141 -840 -270 -130 -51 -562 -270 -568 -288 -1 -4
48 -11 110 -14 349 -20 728 -165 971 -371 136 -116 256 -292 291 -430 9 -32
17 -60 19 -62 1 -2 36 2 77 8 106 15 336 4 436 -21 172 -42 311 -103 442 -194
98 -67 220 -198 263 -281 28 -56 37 -66 54 -61 104 30 168 37 310 32 183 -6
298 -33 454 -108 152 -72 262 -150 382 -269 142 -142 280 -355 312 -483 11
-41 22 -33 47 36 47 131 149 285 280 421 195 203 425 334 677 385 137 28 320
29 428 1 43 -11 79 -20 81 -20 2 0 20 33 41 73 47 91 187 234 294 300 91 56
235 120 333 147 166 47 372 63 515 40 35 -6 66 -9 68 -6 3 2 9 24 14 47 17 72
82 199 148 287 217 286 687 508 1124 529 64 3 117 9 117 14 0 4 -30 23 -67 41
-38 19 -144 73 -238 120 -464 234 -1039 410 -1640 503 -93 14 -192 30 -220 34
-27 5 -53 7 -57 4 -5 -2 -8 -19 -8 -36 -1 -89 -62 -249 -140 -366 -151 -225
-442 -428 -750 -521 -112 -35 -253 -91 -362 -146 -38 -19 -68 -32 -68 -30 0 8
183 127 239 156 31 15 71 31 89 35 46 10 40 21 -15 29 -34 4 -66 0 -108 -13
-49 -16 -63 -17 -75 -6 -8 7 -55 24 -105 38 -122 34 -142 43 -153 64 -14 27
-31 218 -37 418 -9 333 -50 706 -111 1004 -42 208 -43 211 -55 211 -5 0 -9
-58 -9 -134z m-457 -1133 c37 -21 67 -41 67 -45 0 -5 -20 -8 -45 -8 -37 0 -51
5 -71 28 -67 71 -49 80 49 25z m497 28 c0 -5 -15 -25 -32 -44 -24 -24 -46 -37
-76 -42 -67 -11 -73 8 -15 40 26 16 57 34 68 41 24 15 55 18 55 5z m-459 -333
c57 -33 118 -72 135 -85 31 -23 31 -23 75 10 55 43 229 141 236 134 2 -3 0
-29 -6 -59 -6 -29 -13 -81 -17 -116 -6 -55 -13 -71 -52 -120 -101 -127 -92
-122 -208 -122 -114 0 -102 -6 -203 113 -55 64 -57 71 -65 152 -4 39 -9 89
-13 113 -3 23 -1 42 4 42 5 0 56 -28 114 -62z"/>
<path d="M5020 2721 c-41 -7 -51 -38 -10 -32 14 2 76 4 138 4 82 0 112 3 112
12 0 7 -7 16 -16 19 -19 7 -177 6 -224 -3z"/>
<path d="M5063 2663 c-7 -2 -13 -10 -13 -17 0 -8 23 -12 75 -11 49 0 75 4 75
11 0 7 -7 15 -16 18 -18 7 -103 7 -121 -1z"/>
</g>
</svg>
