<?xml version="1.0" standalone="no"?>
<!DOCTYPE svg PUBLIC "-//W3C//DTD SVG 20010904//EN"
 "http://www.w3.org/TR/2001/REC-SVG-20010904/DTD/svg10.dtd">
<svg version="1.0" xmlns="http://www.w3.org/2000/svg"
 width="424.000000pt" height="600.000000pt" viewBox="0 0 424.000000 600.000000"
 preserveAspectRatio="xMidYMid meet">
<metadata>
Created by potrace 1.16, written by Peter Selinger 2001-2019
</metadata>
<g transform="translate(0.000000,600.000000) scale(0.100000,-0.100000)"
fill="#000000" stroke="none">
<path d="M1530 5113 c-194 -406 -323 -1014 -380 -1788 -13 -176 -13 -192 0
-179 5 5 28 147 50 314 84 630 157 993 289 1439 40 135 70 196 57 116 -17
-109 -25 -359 -16 -523 14 -235 42 -432 62 -432 5 0 42 15 81 34 138 67 210
81 407 81 197 0 276 -13 445 -72 165 -57 149 -64 168 69 42 280 73 660 64 781
-2 37 -1 70 4 72 10 7 98 -261 138 -420 66 -262 113 -583 156 -1050 15 -159
30 -301 35 -315 12 -36 12 115 0 330 -37 657 -131 1116 -305 1486 -23 50 -47
94 -52 97 -7 4 -13 -70 -17 -211 -4 -119 -11 -280 -17 -357 -10 -139 -47 -453
-55 -467 -3 -4 -19 2 -37 12 -18 10 -74 33 -126 50 -266 86 -548 77 -789 -27
-46 -19 -85 -34 -87 -32 -2 2 -9 65 -16 139 -8 86 -13 277 -13 528 1 215 -2
392 -6 392 -4 0 -22 -30 -40 -67z"/>
<path d="M1440 2963 c0 -15 184 -190 218 -207 45 -23 232 -35 231 -15 0 8 -91
58 -215 119 -244 119 -234 115 -234 103z"/>
<path d="M2635 2854 c-115 -58 -212 -110 -214 -116 -2 -7 29 -9 100 -6 129 5
146 13 262 126 137 134 129 134 -148 -4z"/>
</g>
</svg>
