<?xml version="1.0" encoding="UTF-8"?>
<!-- Generator: visioncortex VTracer 0.6.4 -->
<svg version="1.1" xmlns="http://www.w3.org/2000/svg" width="424" height="600">
<path d="M0 0 C139.92 0 279.84 0 424 0 C424 198 424 396 424 600 C284.08 600 144.16 600 0 600 C0 402 0 204 0 0 Z " fill="#000000" transform="translate(0,0)"/>
<path d="M0 0 C0.33 0 0.66 0 1 0 C0.99333817 1.32494225 0.99333817 1.32494225 0.98654175 2.676651 C0.94582636 11.15819703 0.91570052 19.63970851 0.89637566 28.12133121 C0.8861055 32.47782245 0.87226981 36.83423048 0.84912109 41.19067383 C0.73510474 63.21825342 1.19692555 85.0393652 3 107 C3.92868896 106.59297852 4.85737793 106.18595703 5.81420898 105.76660156 C7.0622594 105.22443016 8.31039209 104.68244811 9.55859375 104.140625 C10.1671521 103.87330566 10.77571045 103.60598633 11.40270996 103.33056641 C34.24666174 93.44638218 61.25168651 91.29023946 85 99 C86.72915135 99.47922194 88.45831626 99.95839495 90.1875 100.4375 C96.24079396 102.30005199 102.11592256 104.66665895 108 107 C108.03738281 106.32839844 108.07476562 105.65679687 108.11328125 104.96484375 C108.52192973 98.75498946 109.16421558 92.64665261 110.04223633 86.48803711 C113.99058052 58.51307958 114.41358058 30.20534399 115 2 C119.02543412 5.61013457 120.69419914 10.33449603 122.875 15.1875 C123.32045166 16.17186035 123.76590332 17.1562207 124.22485352 18.17041016 C127.35873799 25.23211945 129.92141464 32.29990485 132.05078125 39.71875 C132.80804622 42.33645607 133.63437219 44.84060194 134.625 47.375 C137.23796607 54.26372874 139.07240743 61.15042902 140.48461914 68.37255859 C140.9611107 70.80174011 141.45837808 73.22535698 141.96484375 75.6484375 C144.39138663 87.37960219 146.3942207 99.12892678 148 111 C148.1561377 112.08748535 148.31227539 113.1749707 148.47314453 114.29541016 C150.1707824 126.77880454 150.90603942 139.30263929 151.625 151.875 C151.69103424 153.00064362 151.75706848 154.12628723 151.82510376 155.28604126 C152.77208068 171.54453005 153.44109545 187.71214216 153 204 C152.67 204 152.34 204 152 204 C151.94465088 203.33468262 151.88930176 202.66936523 151.83227539 201.98388672 C151.57821917 198.94737287 151.32039327 195.91119027 151.0625 192.875 C150.97548828 191.82828125 150.88847656 190.7815625 150.79882812 189.703125 C150.71181641 188.68476563 150.62480469 187.66640625 150.53515625 186.6171875 C150.456604 185.68503418 150.37805176 184.75288086 150.29711914 183.79248047 C150.09515507 181.89431696 149.82917297 180.00211294 149.50708008 178.12060547 C148.92957692 174.56661157 148.62903872 171.04311144 148.3515625 167.453125 C148.23385217 165.96531543 148.11592343 164.47752314 147.99780273 162.98974609 C147.93712616 162.21588562 147.87644958 161.44202515 147.81393433 160.64471436 C146.85856077 148.53549733 145.82315266 136.44358768 144.4375 124.375 C144.32293457 123.35954102 144.20836914 122.34408203 144.09033203 121.29785156 C143.46527446 116.03318222 142.61991846 110.88163226 141.53344727 105.69384766 C140.92026653 102.59735512 140.41576341 99.49273954 139.921875 96.375 C135.9133431 71.075643 130.6987158 46.32810183 121.90234375 22.21484375 C121.36661743 20.74519165 121.36661743 20.74519165 120.82006836 19.24584961 C120.41413452 18.13415405 120.41413452 18.13415405 120 17 C119.96036133 17.89154785 119.92072266 18.7830957 119.87988281 19.70166016 C118.4238295 51.31249718 115.37339293 82.65735068 111 114 C107.30944371 113.11120893 103.77845245 111.92272646 100.1875 110.6875 C69.67562714 100.39456363 38.55444239 97.29482101 8.484375 110.4765625 C5 112 5 112 2 113 C-5.45155034 93.470538 -4.2753352 71.08056231 -4.25 50.5 C-4.24922455 49.42806396 -4.2484491 48.35612793 -4.24765015 47.25170898 C-4.20166596 25.29520322 -4.20166596 25.29520322 -3 15 C-8.57020364 30.79635256 -12.98103001 46.7455959 -17 63 C-17.32356351 64.2959808 -17.64746348 65.59187764 -17.97167969 66.88769531 C-18.94905509 70.79779985 -19.91341726 74.71097997 -20.875 78.625 C-21.17341797 79.82769531 -21.47183594 81.03039062 -21.77929688 82.26953125 C-23.10713655 87.74803062 -24.199022 93.04556513 -24.69726562 98.65722656 C-25.07257635 101.56164731 -25.73311427 104.34716505 -26.4140625 107.1953125 C-28.05108053 114.04697706 -29.26812957 120.91989565 -30.375 127.875 C-30.47849762 128.51864502 -30.58199524 129.16229004 -30.68862915 129.82543945 C-33.2199965 145.62857196 -35.19839186 161.5037596 -37.17129517 177.38441467 C-38.5707334 188.62562241 -40.04628153 199.83886362 -42 211 C-42.33 211 -42.66 211 -43 211 C-43.28839324 201.43495768 -42.81961616 191.97825723 -42.125 182.4375 C-42.04652832 181.32721436 -41.96805664 180.21692871 -41.88720703 179.07299805 C-41.45303568 173.39502009 -40.85958887 167.78515534 -40.01953125 162.15234375 C-38.98003612 155.18220948 -38.3334356 148.19844948 -37.73822021 141.17971802 C-36.84026472 130.67981427 -35.80580673 120.32361783 -33.62109375 110 C-33.07081855 107.34206698 -32.69736425 104.76144094 -32.4375 102.0625 C-31.87949838 96.33225261 -30.47853952 90.86689492 -29.05078125 85.296875 C-28.79228394 84.28379272 -28.79228394 84.28379272 -28.52856445 83.25024414 C-28.02469231 81.28386275 -27.51255726 79.31960418 -27 77.35546875 C-26.17718419 74.00781561 -25.61643151 70.66078879 -25.09375 67.25390625 C-24.0658991 60.91001446 -22.41113252 54.87970013 -20.5 48.75 C-20.15469238 47.63681396 -19.80938477 46.52362793 -19.45361328 45.37670898 C-14.42541106 29.59590685 -8.1565884 14.41974539 0 0 Z " fill="#E8E8E8" transform="translate(157,81)"/>
<path d="M0 0 C4.02543412 3.61013457 5.69419914 8.33449603 7.875 13.1875 C8.32045166 14.17186035 8.76590332 15.1562207 9.22485352 16.17041016 C12.35873799 23.23211945 14.92141464 30.29990485 17.05078125 37.71875 C17.80804622 40.33645607 18.63437219 42.84060194 19.625 45.375 C22.23796607 52.26372874 24.07240743 59.15042902 25.48461914 66.37255859 C25.9611107 68.80174011 26.45837808 71.22535698 26.96484375 73.6484375 C29.39138663 85.37960219 31.3942207 97.12892678 33 109 C33.1561377 110.08748535 33.31227539 111.1749707 33.47314453 112.29541016 C35.1707824 124.77880454 35.90603942 137.30263929 36.625 149.875 C36.69103424 151.00064362 36.75706848 152.12628723 36.82510376 153.28604126 C37.77208068 169.54453005 38.44109545 185.71214216 38 202 C37.67 202 37.34 202 37 202 C36.94465088 201.33468262 36.88930176 200.66936523 36.83227539 199.98388672 C36.57821917 196.94737287 36.32039327 193.91119027 36.0625 190.875 C35.97548828 189.82828125 35.88847656 188.7815625 35.79882812 187.703125 C35.71181641 186.68476563 35.62480469 185.66640625 35.53515625 184.6171875 C35.456604 183.68503418 35.37805176 182.75288086 35.29711914 181.79248047 C35.09515507 179.89431696 34.82917297 178.00211294 34.50708008 176.12060547 C33.92957692 172.56661157 33.62903872 169.04311144 33.3515625 165.453125 C33.23385217 163.96531543 33.11592343 162.47752314 32.99780273 160.98974609 C32.93712616 160.21588562 32.87644958 159.44202515 32.81393433 158.64471436 C31.85856077 146.53549733 30.82315266 134.44358768 29.4375 122.375 C29.32293457 121.35954102 29.20836914 120.34408203 29.09033203 119.29785156 C28.46527446 114.03318222 27.61991846 108.88163226 26.53344727 103.69384766 C25.92026653 100.59735512 25.41576341 97.49273954 24.921875 94.375 C20.9133431 69.075643 15.6987158 44.32810183 6.90234375 20.21484375 C6.36661743 18.74519165 6.36661743 18.74519165 5.82006836 17.24584961 C5.5494458 16.50471924 5.27882324 15.76358887 5 15 C4.96036133 15.89154785 4.92072266 16.7830957 4.87988281 17.70166016 C3.4238295 49.31249718 0.37339293 80.65735068 -4 112 C-7.69055629 111.11120893 -11.22154755 109.92272646 -14.8125 108.6875 C-30.98670194 103.23126229 -46.63303612 99.83971395 -63.75 99.375 C-64.9359375 99.33632812 -66.121875 99.29765625 -67.34375 99.2578125 C-70.22902375 99.16473915 -73.11431021 99.07891059 -76 99 C-76 98.67 -76 98.34 -76 98 C-66.1 97.505 -66.1 97.505 -56 97 C-55.67 96.34 -55.34 95.68 -55 95 C-60.28 94.67 -65.56 94.34 -71 94 C-71 93.67 -71 93.34 -71 93 C-56.65772217 92.5539483 -43.72293078 92.54492532 -30 97 C-28.27084865 97.47922194 -26.54168374 97.95839495 -24.8125 98.4375 C-18.75920604 100.30005199 -12.88407744 102.66665895 -7 105 C-6.96261719 104.32839844 -6.92523438 103.65679687 -6.88671875 102.96484375 C-6.47807027 96.75498946 -5.83578442 90.64665261 -4.95776367 84.48803711 C-1.00941948 56.51307958 -0.58641942 28.20534399 0 0 Z " fill="#E2E2E2" transform="translate(272,83)"/>
<path d="M0 0 C0.66 0 1.32 0 2 0 C2.00808685 0.69537369 2.01617371 1.39074738 2.02450562 2.10719299 C2.12899848 10.92580741 2.24645889 19.74420695 2.375 28.5625 C2.38516521 29.26047573 2.39533043 29.95845146 2.40580368 30.67757797 C2.70845413 51.16112181 3.17624876 71.583012 5 92 C5.92216309 91.59370361 6.84432617 91.18740723 7.79443359 90.76879883 C13.98556431 88.06314316 20.08083201 85.42699196 26.625 83.6875 C28.31496094 83.22923828 28.31496094 83.22923828 30.0390625 82.76171875 C31.01617187 82.51035156 31.99328125 82.25898438 33 82 C33.59570801 81.82130371 34.19141602 81.64260742 34.80517578 81.45849609 C37.60182903 80.87427865 40.22119756 80.8883392 43.078125 80.90234375 C44.23828125 80.90556641 45.3984375 80.90878906 46.59375 80.91210938 C48.40359375 80.92467773 48.40359375 80.92467773 50.25 80.9375 C52.08304688 80.94426758 52.08304688 80.94426758 53.953125 80.95117188 C56.96879946 80.96295185 59.98437498 80.97940147 63 81 C62.34 82.32 61.68 83.64 61 85 C60.44127197 85.01981934 59.88254395 85.03963867 59.30688477 85.06005859 C56.72502582 85.1565219 54.14384608 85.26569812 51.5625 85.375 C50.68400391 85.4059375 49.80550781 85.436875 48.90039062 85.46875 C43.06254605 85.72725234 37.65149686 86.52697157 32 88 C30.80375 88.30679688 29.6075 88.61359375 28.375 88.9296875 C21.62423411 90.82052702 15.31805849 92.97482792 9 96 C7.33805262 96.67834587 5.67401097 97.35199575 4 98 C-3.46587219 78.43300247 -2.27526617 55.9937107 -2.25 35.375 C-2.24922455 34.29452393 -2.2484491 33.21404785 -2.24765015 32.10083008 C-2.24114549 28.97075589 -2.22482409 25.84094069 -2.203125 22.7109375 C-2.19873917 21.77949921 -2.19435333 20.84806091 -2.18983459 19.88839722 C-2.02135493 4.04270986 -2.02135493 4.04270986 0 0 Z " fill="#F0F0F0" transform="translate(155,96)"/>
<path d="M0 0 C0 3 0 3 -1.94140625 4.98046875 C-3.23884766 6.07294922 -3.23884766 6.07294922 -4.5625 7.1875 C-7.89269857 10.0674182 -10.89578662 12.90890423 -13.6875 16.3125 C-18.25921202 21.69982262 -22.92081229 24.14688816 -30 25 C-33.12664757 25.11014527 -36.24694243 25.09492803 -39.375 25.0625 C-40.20644531 25.05798828 -41.03789062 25.05347656 -41.89453125 25.04882812 C-43.92971897 25.03713164 -45.96486923 25.01919935 -48 25 C-46.67447785 22.3489557 -45.38888922 22.06172855 -42.71484375 20.8203125 C-41.34598022 20.17703003 -41.34598022 20.17703003 -39.94946289 19.52075195 C-38.95551514 19.06015381 -37.96156738 18.59955566 -36.9375 18.125 C-28.0883641 13.96446467 -19.30088229 9.70112441 -10.5625 5.3125 C-9.50861084 4.78350098 -8.45472168 4.25450195 -7.36889648 3.70947266 C-4.91175173 2.47465035 -2.45539519 1.23829666 0 0 Z " fill="#ECECEC" transform="translate(288,302)"/>
<path d="M0 0 C5.23810059 1.96428772 10.13993274 4.54358198 15.1171875 7.078125 C17.87805207 8.47418482 20.59042669 9.83953526 23.47265625 10.96875 C28.05534379 12.83865651 32.33501436 15.35051877 36.67382812 17.72265625 C40.71025358 19.89694409 44.573876 21.70933944 49 23 C49 23.66 49 24.32 49 25 C46.33305052 25.05455124 43.66724502 25.09393392 41 25.125 C39.88431641 25.15013672 39.88431641 25.15013672 38.74609375 25.17578125 C27.90404515 25.27005993 21.3308149 22.32038542 13.4765625 14.70703125 C11.85417748 13.08068919 10.23710591 11.44903176 8.625 9.8125 C7.79355469 8.98041016 6.96210938 8.14832031 6.10546875 7.29101562 C0 1.14043257 0 1.14043257 0 0 Z " fill="#E9E9E9" transform="translate(142,302)"/>
<path d="M0 0 C1.32 0 2.64 0 4 0 C5.96759355 13.58119448 6.84194704 27.18186498 7.625 40.875 C7.72405136 42.56346542 7.72405136 42.56346542 7.82510376 44.28604126 C8.77208068 60.54453005 9.44109545 76.71214216 9 93 C8.67 93 8.34 93 8 93 C7.91697632 92.00202393 7.91697632 92.00202393 7.83227539 90.98388672 C7.57821917 87.94737287 7.32039327 84.91119027 7.0625 81.875 C6.97548828 80.82828125 6.88847656 79.7815625 6.79882812 78.703125 C6.71181641 77.68476563 6.62480469 76.66640625 6.53515625 75.6171875 C6.456604 74.68503418 6.37805176 73.75288086 6.29711914 72.79248047 C6.09562627 70.89874551 5.8306567 69.01090034 5.50927734 67.13378906 C4.92093938 63.5135081 4.60169086 59.89562476 4.31640625 56.2421875 C4.25656555 55.5050351 4.19672485 54.76788269 4.1350708 54.00839233 C4.00778049 52.43947441 3.88153415 50.87047149 3.7562561 49.3013916 C2.34576777 31.62719845 2.34576777 31.62719845 0.55883789 13.98779297 C0.05056784 9.28807311 -0.06877165 4.71879336 0 0 Z " fill="#EAEAEA" transform="translate(301,192)"/>
<path d="M0 0 C2.93447357 2.93447357 2.46158423 6.18259456 2.625 10.125 C2.66367188 10.87910156 2.70234375 11.63320312 2.7421875 12.41015625 C2.83651031 14.27303184 2.91934662 16.13648255 3 18 C4.41152344 17.36771484 4.41152344 17.36771484 5.8515625 16.72265625 C7.10921737 16.16891269 8.36703881 15.61554732 9.625 15.0625 C10.24246094 14.78470703 10.85992187 14.50691406 11.49609375 14.22070312 C15.32426694 12.54839589 18.85424076 11.5038692 23 11 C23 11.66 23 12.32 23 13 C23.66 13.66 24.32 14.32 25 15 C24.32195312 15.23074219 23.64390625 15.46148437 22.9453125 15.69921875 C17.0483174 17.76561731 11.51556302 20.11493292 5.99609375 23.046875 C4 24 4 24 2 24 C-1.18247001 16.3090308 -1.59219655 9.29075163 -1 1 C-0.67 0.67 -0.34 0.34 0 0 Z " fill="#E6E6E6" transform="translate(157,170)"/>
<path d="M0 0 C2.79040208 2.79040208 3.86080522 4.43965422 5.4453125 7.9296875 C6.10080078 9.37021484 6.10080078 9.37021484 6.76953125 10.83984375 C7.21683594 11.84144531 7.66414063 12.84304687 8.125 13.875 C8.58003906 14.86886719 9.03507812 15.86273438 9.50390625 16.88671875 C11.48034478 21.26772641 13.20331586 25.23593581 14 30 C13.34 30 12.68 30 12 30 C11.67 31.32 11.34 32.64 11 34 C10.65066406 32.87980469 10.30132812 31.75960937 9.94140625 30.60546875 C9.48178595 29.13280778 9.0221497 27.66015179 8.5625 26.1875 C8.33240234 25.44951172 8.10230469 24.71152344 7.86523438 23.95117188 C6.9312816 20.95981589 5.99100896 17.97302688 5 15 C4.67 22.26 4.34 29.52 4 37 C3.67 37 3.34 37 3 37 C2.67 29.41 2.34 21.82 2 14 C1.67 17.3 1.34 20.6 1 24 C0.67 24 0.34 24 0 24 C0 16.08 0 8.16 0 0 Z " fill="#D1D1D1" transform="translate(272,83)"/>
<path d="M0 0 C3.26481401 3.26481401 2.29634634 7.24311834 2.32226562 11.68945312 C2.31904297 12.96755859 2.31582031 14.24566406 2.3125 15.5625 C2.32861328 16.81353516 2.34472656 18.06457031 2.36132812 19.35351562 C2.36512727 26.57568103 1.75408709 32.30735036 -1 39 C-1.33 39 -1.66 39 -2 39 C-2.42067939 25.93556777 -1.15151581 13.00049103 0 0 Z " fill="#F4F4F4" transform="translate(273,95)"/>
<path d="M0 0 C0.33 0 0.66 0 1 0 C1.09129207 6.81881512 0.76925195 13.51928631 0.1875 20.3125 C0.11724609 21.28767578 0.04699219 22.26285156 -0.02539062 23.26757812 C-0.14624023 24.67620117 -0.14624023 24.67620117 -0.26953125 26.11328125 C-0.33760986 26.95673096 -0.40568848 27.80018066 -0.47583008 28.66918945 C-1 31 -1 31 -4 35 C-4 25.76 -4 16.52 -4 7 C-3.34 7 -2.68 7 -2 7 C-1.34 4.69 -0.68 2.38 0 0 Z " fill="#DDDDDD" transform="translate(274,125)"/>
<path d="M0 0 C0.33 0 0.66 0 1 0 C1.02693575 2.12493141 1.04636628 4.24995912 1.0625 6.375 C1.07410156 7.55835937 1.08570313 8.74171875 1.09765625 9.9609375 C1 13 1 13 0 15 C-0.99 15 -1.98 15 -3 15 C-3.66 17.31 -4.32 19.62 -5 22 C-6.32 21.34 -7.64 20.68 -9 20 C-6.86233829 12.755702 -3.77315981 6.53281715 0 0 Z " fill="#D7D7D7" transform="translate(157,81)"/>
<path d="M0 0 C0.33 0 0.66 0 1 0 C1.93201642 15.67784758 2.12135629 31.29649572 2 47 C1.67 47 1.34 47 1 47 C0.94465088 46.33468262 0.88930176 45.66936523 0.83227539 44.98388672 C0.57821917 41.94737287 0.32039327 38.91119027 0.0625 35.875 C-0.02451172 34.82828125 -0.11152344 33.7815625 -0.20117188 32.703125 C-0.62421475 27.75195654 -1.15326726 22.89895372 -2 18 C-2.11196073 15.32189925 -2.04625299 12.68267314 -2 10 C-1.67 10 -1.34 10 -1 10 C-0.67 6.7 -0.34 3.4 0 0 Z " fill="#AAAAAA" transform="translate(308,238)"/>
<path d="M0 0 C0.66 0 1.32 0 2 0 C2 14.85 2 29.7 2 45 C1.67 45 1.34 45 1 45 C0.67 34.11 0.34 23.22 0 12 C-0.33 12 -0.66 12 -1 12 C-1.02698189 10.37509046 -1.04638757 8.75005367 -1.0625 7.125 C-1.07410156 6.22007813 -1.08570313 5.31515625 -1.09765625 4.3828125 C-1 2 -1 2 0 0 Z " fill="#E8E8E8" transform="translate(155,96)"/>
<path d="M0 0 C3.25183271 3.25183271 2.43685064 7.9135643 2.56640625 12.32226562 C2.64563966 14.21869999 2.81589782 16.11086061 3 18 C3.66 18.33 4.32 18.66 5 19 C3.02 19.99 3.02 19.99 1 21 C-0.78372815 16.4102489 -1.24456334 12.60013523 -1.1875 7.6875 C-1.18105469 6.45386719 -1.17460937 5.22023437 -1.16796875 3.94921875 C-1 1 -1 1 0 0 Z " fill="#D9D9D9" transform="translate(157,170)"/>
<path d="M0 0 C0.33 0 0.66 0 1 0 C1.33 2.31 1.66 4.62 2 7 C2.33 7 2.66 7 3 7 C3.15490223 12.73138244 2.65244885 17.89349206 1.5 23.5 C1.35691406 24.22703125 1.21382813 24.9540625 1.06640625 25.703125 C0.71766302 27.47009071 0.35980277 29.23525309 0 31 C-0.33 31 -0.66 31 -1 31 C-1.13430792 20.6135207 -0.76214036 10.35694312 0 0 Z " fill="#969696" transform="translate(115,261)"/>
<path d="M0 0 C0 3 0 3 -2.1171875 5.19140625 C-3.02726562 5.97386719 -3.93734375 6.75632812 -4.875 7.5625 C-5.77992188 8.34753906 -6.68484375 9.13257813 -7.6171875 9.94140625 C-8.40351563 10.62074219 -9.18984375 11.30007813 -10 12 C-10.66 12.66 -11.32 13.32 -12 14 C-12.33 13.01 -12.66 12.02 -13 11 C-12.67 10.34 -12.34 9.68 -12 9 C-12.66 8.34 -13.32 7.68 -14 7 C-9.38 4.69 -4.76 2.38 0 0 Z " fill="#E7E7E7" transform="translate(288,302)"/>
<path d="M0 0 C0.66 0 1.32 0 2 0 C3.59412284 3.18824568 3.10174735 6.62896662 3.0625 10.125 C3.05798828 10.87910156 3.05347656 11.63320312 3.04882812 12.41015625 C3.03703499 14.27347127 3.01909942 16.13674555 3 18 C2.01 17.67 1.02 17.34 0 17 C0 11.39 0 5.78 0 0 Z " fill="#ECECEC" transform="translate(304,214)"/>
<path d="M0 0 C2.37616467 2.37616467 3.04068181 4.35349521 4.1875 7.5 C4.55230469 8.4796875 4.91710937 9.459375 5.29296875 10.46875 C6 13 6 13 5 15 C4.67 13.68 4.34 12.36 4 11 C2.68 11.33 1.36 11.66 0 12 C0 8.04 0 4.08 0 0 Z " fill="#292929" transform="translate(276,96)"/>
<path d="M0 0 C0.99 0 1.98 0 3 0 C3 2.64 3 5.28 3 8 C2.67 7.34 2.34 6.68 2 6 C1.34 6 0.68 6 0 6 C0 7.98 0 9.96 0 12 C-0.33 12 -0.66 12 -1 12 C-1.02698189 10.37509046 -1.04638757 8.75005367 -1.0625 7.125 C-1.07410156 6.22007812 -1.08570313 5.31515625 -1.09765625 4.3828125 C-1 2 -1 2 0 0 Z " fill="#CECECE" transform="translate(304,208)"/>
<path d="M0 0 C2.40034102 3.60051153 4.32187705 6.96144535 3.625 11.375 C3.41875 11.91125 3.2125 12.4475 3 13 C3 12.01 3 11.02 3 10 C2.01 10 1.02 10 0 10 C-0.33 10.66 -0.66 11.32 -1 12 C-1.33 10.02 -1.66 8.04 -2 6 C-1.01 6.33 -0.02 6.66 1 7 C0.67 4.69 0.34 2.38 0 0 Z " fill="#CBCBCB" transform="translate(291,129)"/>
<path d="M0 0 C0.66 0.99 1.32 1.98 2 3 C-0.31 3.66 -2.62 4.32 -5 5 C-5 4.01 -5 3.02 -5 2 C-6.32 1.67 -7.64 1.34 -9 1 C-2.25 -1.125 -2.25 -1.125 0 0 Z " fill="#DDDDDD" transform="translate(180,182)"/>
<path d="M0 0 C0 0.99 0 1.98 0 3 C-1.53125 4.38671875 -1.53125 4.38671875 -3.5 5.6875 C-4.47453125 6.34298828 -4.47453125 6.34298828 -5.46875 7.01171875 C-5.9740625 7.33785156 -6.479375 7.66398437 -7 8 C-7.33 6.68 -7.66 5.36 -8 4 C-5.36 2.68 -2.72 1.36 0 0 Z " fill="#BBBBBB" transform="translate(288,302)"/>
<path d="M0 0 C0.33 0 0.66 0 1 0 C1 4.29 1 8.58 1 13 C0.01 13.495 0.01 13.495 -1 14 C-1.33 11.69 -1.66 9.38 -2 7 C-1.67 7 -1.34 7 -1 7 C-0.67 4.69 -0.34 2.38 0 0 Z " fill="#DADADA" transform="translate(307,224)"/>
<path d="M0 0 C0.99 1.485 0.99 1.485 2 3 C2.66 2.67 3.32 2.34 4 2 C3.67 5.63 3.34 9.26 3 13 C2.01 12.67 1.02 12.34 0 12 C0.66 12 1.32 12 2 12 C2 10.02 2 8.04 2 6 C1.34 6 0.68 6 0 6 C0 4.02 0 2.04 0 0 Z " fill="#9C9C9C" transform="translate(265,182)"/>
<path d="M0 0 C1.4540625 0.0309375 1.4540625 0.0309375 2.9375 0.0625 C3.2675 0.7225 3.5975 1.3825 3.9375 2.0625 C0.4725 3.5475 0.4725 3.5475 -3.0625 5.0625 C-3.625 3.125 -3.625 3.125 -4.0625 1.0625 C-3.0625 0.0625 -3.0625 0.0625 0 0 Z " fill="#0F0F0F" transform="translate(276.0625,304.9375)"/>
<path d="M0 0 C0.33 0 0.66 0 1 0 C1.36923077 6.52307692 1.36923077 6.52307692 -0.5 8.9375 C-0.995 9.288125 -1.49 9.63875 -2 10 C-2.1953125 3.9453125 -2.1953125 3.9453125 -2 2 C-1.34 1.34 -0.68 0.68 0 0 Z " fill="#EEEEEE" transform="translate(268,177)"/>
<path d="M0 0 C0.99 0 1.98 0 3 0 C3.33 1.65 3.66 3.3 4 5 C3.34 5 2.68 5 2 5 C1.67 6.32 1.34 7.64 1 9 C0.67 6.03 0.34 3.06 0 0 Z " fill="#C7C7C7" transform="translate(282,108)"/>
<path d="M0 0 C1.90401138 1.90401138 2.93520439 3.33425686 3.19921875 6.046875 C3.1886578 8.03233273 3.09915043 10.0169914 3 12 C2.34 10.68 1.68 9.36 1 8 C0.01 8.495 0.01 8.495 -1 9 C-0.67 6.03 -0.34 3.06 0 0 Z " fill="#A5A5A5" transform="translate(267,170)"/>
<path d="M0 0 C1.32 0 2.64 0 4 0 C4 0.99 4 1.98 4 3 C2.35 3.33 0.7 3.66 -1 4 C-1 1 -1 1 0 0 Z " fill="#F7F7F7" transform="translate(171,184)"/>
<path d="M0 0 C0.33 0.66 0.66 1.32 1 2 C-0.98 4.97 -0.98 4.97 -3 8 C-3.66 7.67 -4.32 7.34 -5 7 C-4.67 6.01 -4.34 5.02 -4 4 C-3.34 4 -2.68 4 -2 4 C-1.34 2.68 -0.68 1.36 0 0 Z " fill="#343434" transform="translate(279,312)"/>
<path d="M0 0 C0.66 0 1.32 0 2 0 C2 1.98 2 3.96 2 6 C0.68 5.67 -0.64 5.34 -2 5 C-1.34 3.35 -0.68 1.7 0 0 Z " fill="#F5F5F5" transform="translate(265,188)"/>
<path d="M0 0 C0.66 1.32 1.32 2.64 2 4 C1.01 4.99 0.02 5.98 -1 7 C-1.66 5.35 -2.32 3.7 -3 2 C-2.01 2 -1.02 2 0 2 C0 1.34 0 0.68 0 0 Z " fill="#0B0B0B" transform="translate(276,81)"/>
</svg>
